# Rhino

mtllib model.mtl
usemtl Plastic
v 8.0600595474243164 0 0
v 8.0600595474243164 37.633342742919922 0
v 8.0600595474243164 0 -100
v 8.0600595474243164 37.633342742919922 -100
vt 0 0
vt 0 1
vt 1 0
vt 1 1
vn 1 0 0
vn 1 0 0
vn 1 0 0
vn 1 0 0
f 1/1/1 3/3/3 4/4/4 2/2/2
usemtl Plastic
v -91.93994140625 0 -100
v -91.93994140625 37.633342742919922 -100
v -82.6773681640625 0 -83.023780822753906
v -82.6773681640625 37.633342742919922 -83.023780822753906
v -70.497817993164062 0 -69.628585815429688
v -70.497817993164062 37.633342742919922 -69.628585815429688
v -56.4521484375 0 -61.302879333496094
v -56.4521484375 37.633342742919922 -61.302879333496094
v -49.165134429931641 0 -59.252960205078125
v -49.165134429931641 37.633342742919922 -59.252960205078125
v -41.93994140625 0 -58.5877685546875
v -41.93994140625 37.633342742919922 -58.5877685546875
v -34.714744567871094 0 -59.252960205078125
v -34.714744567871094 37.633342742919922 -59.252960205078125
v -27.427734375 0 -61.302879333496094
v -27.427734375 37.633342742919922 -61.302879333496094
v -13.382060050964355 0 -69.628585815429688
v -13.382060050964355 37.633342742919922 -69.628585815429688
v -1.2025092840194702 0 -83.023780822753906
v -1.2025092840194702 37.633342742919922 -83.023780822753906
v 8.0600595474243164 0 -100
v 8.0600595474243164 37.633342742919922 -100
vt 0 0
vt 0 1
vt 0.125 0
vt 0.125 1
vt 0.25 0
vt 0.25 1
vt 0.375 0
vt 0.375 1
vt 0.4375 0
vt 0.4375 1
vt 0.5 0
vt 0.5 1
vt 0.5625 0
vt 0.5625 1
vt 0.625 0
vt 0.625 1
vt 0.75 0
vt 0.75 1
vt 0.875 0
vt 0.875 1
vt 1 0
vt 1 1
vn -0.92210322618484497 0 0.3869439959526062
vn -0.92210322618484497 0 0.3869439959526062
vn -0.81913381814956665 0 0.57360243797302246
vn -0.81913381814956665 0 0.57360243797302246
vn -0.63786864280700684 0 0.77014517784118652
vn -0.63786864280700684 0 0.77014517784118652
vn -0.35529658198356628 0 0.93475359678268433
vn -0.35529658198356628 0 0.93475359678268433
vn -0.18174991011619568 0 0.98334479331970215
vn -0.18174991011619568 0 0.98334479331970215
vn 0 0 1
vn 0 0 1
vn 0.18174991011619568 0 0.98334479331970215
vn 0.18174991011619568 0 0.98334479331970215
vn 0.35529658198356628 0 0.93475359678268433
vn 0.35529658198356628 0 0.93475359678268433
vn 0.63786864280700684 0 0.77014517784118652
vn 0.63786864280700684 0 0.77014517784118652
vn 0.81913381814956665 0 0.57360243797302246
vn 0.81913381814956665 0 0.57360243797302246
vn 0.92210322618484497 0 0.3869439959526062
vn 0.92210322618484497 0 0.3869439959526062
f 5/5/5 7/7/7 8/8/8 6/6/6
f 7/7/7 9/9/9 10/10/10 8/8/8
f 9/9/9 11/11/11 12/12/12 10/10/10
f 11/11/11 13/13/13 14/14/14 12/12/12
f 13/13/13 15/15/15 16/16/16 14/14/14
f 15/15/15 17/17/17 18/18/18 16/16/16
f 17/17/17 19/19/19 20/20/20 18/18/18
f 19/19/19 21/21/21 22/22/22 20/20/20
f 21/21/21 23/23/23 24/24/24 22/22/22
f 23/23/23 25/25/25 26/26/26 24/24/24
usemtl Plastic
v -91.93994140625 0 -100
v -91.93994140625 37.633342742919922 -100
v -91.93994140625 0 0
v -91.93994140625 37.633342742919922 0
vt 0 0
vt 0 1
vt 1 0
vt 1 1
vn -1 0 0
vn -1 0 0
vn -1 0 0
vn -1 0 0
f 27/27/27 29/29/29 30/30/30 28/28/28
